<svg width="47" height="47" viewBox="0 0 47 47" fill="none" xmlns="http://www.w3.org/2000/svg">
<path d="M23.5 0C10.5221 0 0 10.5207 0 23.5009C0 35.1397 8.4605 44.8015 19.5677 46.6723L19.6109 30.4277H13.8692V23.8934H19.6451C19.6451 22.3107 19.6217 20.7929 19.656 19.2768C19.6758 18.4089 19.6956 17.523 19.8792 16.6822C20.6768 13.0433 22.7852 10.888 26.3034 10.3082C28.5324 9.94089 30.7182 10.193 32.9076 10.5855C33.147 10.6323 33.1254 10.7781 33.1254 10.942C33.1254 12.5589 33.1254 14.174 33.1218 15.7909C33.1218 15.8881 33.102 15.9854 33.0876 16.1348C32.3674 16.1348 31.658 16.1222 30.9522 16.1402C30.3815 16.1582 29.7945 16.1402 29.2436 16.2645C27.796 16.5922 27.0236 17.6113 26.8291 19.0193C26.6851 20.0492 26.6995 21.1026 26.6617 22.1433C26.6401 22.7123 26.6581 23.2812 26.6581 23.8988H32.8607C32.8535 24.0465 32.8553 24.1455 32.8427 24.2409C32.5817 26.1765 32.3152 28.1103 32.0685 30.0459C32.0307 30.3574 31.9389 30.4565 31.6148 30.4529C30.1096 30.4331 28.6026 30.4439 27.0956 30.4439C26.9641 30.4439 26.8327 30.4529 26.6905 30.4601V46.7245C26.3412 46.7767 25.9847 46.8199 25.63 46.8578C24.8576 46.9388 24.0762 46.9874 23.2839 47H23.4982C36.4779 47 46.9982 36.4775 46.9982 23.4991H47C47 10.5207 36.4779 0 23.5 0Z" fill="#243961"/>
</svg>
