<svg width="23" height="26" viewBox="0 0 23 26" fill="none" xmlns="http://www.w3.org/2000/svg">
<path d="M19.7271 17.0012C19.2232 16.3461 18.4034 16.3213 17.6775 16.6529C16.6271 17.1256 15.7645 18.0045 14.8593 18.7177C13.9114 19.4722 12.9037 19.5137 11.9984 18.6928C10.3673 17.2251 8.64222 15.0277 7.48933 13.2615C7.12211 12.6893 6.82321 12.1503 6.58409 11.5036C6.14855 10.3427 6.38768 9.76222 7.47226 9.1569C7.96757 8.87497 8.86427 8.45207 9.30834 8.08722C10.188 7.35752 10.1879 6.51173 9.59869 5.56643C8.77886 4.24799 7.92488 2.93784 7.11358 1.61111C6.68658 0.906284 5.76425 0.665814 5.0896 0.972621C2.57886 2.11693 0.39263 3.58463 0.051032 6.58636C-0.136847 8.21161 0.213299 9.72906 0.785475 11.2714C2.31413 15.376 6.31081 21.6116 12.2461 24.6133C13.0232 25.0031 15.1753 25.3596 16.0634 25.3347C18.5229 25.3182 20.3163 24.7211 22.1524 23.3529C22.7844 22.8803 23.2968 21.7443 22.8015 21.0394C21.845 19.6713 20.7519 18.3445 19.7271 17.0178V17.0012Z" fill="#243961"/>
</svg>
