<svg width="32" height="20" viewBox="0 0 32 20" fill="none" xmlns="http://www.w3.org/2000/svg">
<path d="M31.5738 0.841896C31.2172 0.556064 30.6692 0.509714 29.5732 0.509714C19.8489 0.501989 10.1767 0.494263 2.00054 0.494263C1.22642 0.494263 0.756736 0.540614 0.443607 0.764644C0.104385 1.01185 0.0435028 1.40583 0.0348048 2.00067C0.00871075 7.18427 0 12.391 0 17.7137C0 18.324 0.0695968 18.7566 0.426215 19.027C0.765438 19.2819 1.30471 19.336 2.11362 19.336C5.22751 19.336 8.39358 19.336 11.4553 19.336C12.96 19.336 14.4648 19.336 15.9609 19.336C19.0139 19.336 22.1104 19.336 25.3373 19.336C28.5643 19.336 28.2077 19.336 29.6863 19.336C30.6257 19.336 31.2172 19.3128 31.5738 19.0347C31.9478 18.7411 31.9826 18.239 31.9826 17.5051C31.9826 14.894 31.9913 12.2365 31.9913 9.66406C31.9913 7.29242 31.9913 4.83582 32 2.42556C32 1.66077 31.9739 1.13545 31.5825 0.818721L31.5738 0.841896ZM28.5904 2.10883C27.7119 2.71912 26.8334 3.3294 25.981 3.92424C23.2237 5.84781 20.6143 7.67096 17.9353 9.48637C16.7872 10.2666 15.2389 10.3052 14.1691 9.57135C11.4031 7.68641 8.62843 5.73966 5.94075 3.86244C5.12313 3.28305 4.27072 2.68821 3.43571 2.1011H28.5817L28.5904 2.10883ZM1.98315 16.7789V3.144C2.52243 3.52254 3.053 3.89334 3.58358 4.25643C5.2275 5.39976 6.78446 6.48128 8.3588 7.57826C8.83719 7.91044 9.30689 8.25035 9.77658 8.58253C10.3333 8.98424 10.9073 9.39367 11.4901 9.79538C11.6379 9.89581 11.6727 9.94989 11.6814 9.96534C11.6727 9.98079 11.6379 10.0271 11.5249 10.1121C9.02854 11.8503 6.57569 13.573 3.97499 15.3961C3.32264 15.8519 2.6616 16.3154 1.99186 16.7867L1.98315 16.7789ZM3.38354 17.7755C3.43573 17.7446 3.48791 17.7137 3.54879 17.6751C3.61838 17.6364 3.69666 17.5901 3.76624 17.536C5.14053 16.5781 6.5409 15.6047 7.88909 14.6622C9.43734 13.5884 11.0378 12.476 12.6121 11.379C13.0818 11.0469 13.3688 10.9542 13.9429 11.1936C15.1954 11.7267 16.6132 11.7112 18.1615 11.1627C18.6224 11.0005 18.8138 10.9619 19.1269 11.1859C21.5972 12.9318 24.0674 14.6545 26.6768 16.4699C27.2944 16.9026 27.9119 17.3352 28.5382 17.7678H3.37483L3.38354 17.7755ZM30.0081 16.8099C29.9125 16.7712 29.8342 16.7017 29.7385 16.6244C29.6863 16.5781 29.6254 16.5317 29.5646 16.4854C28.6252 15.8288 27.6684 15.1489 26.7464 14.5C24.7893 13.1172 22.7627 11.6958 20.7535 10.3052C20.4229 10.0812 20.3707 9.96534 20.3794 9.92671C20.3794 9.88809 20.4142 9.77993 20.7709 9.54045C22.7366 8.204 24.7197 6.82891 26.6333 5.49246C27.5553 4.85127 28.5208 4.17918 29.4602 3.53026C29.6167 3.42211 29.7994 3.31395 30.0168 3.19808V16.8099H30.0081Z" fill="#243961"/>
</svg>
