<svg width="47" height="47" viewBox="0 0 47 47" fill="none" xmlns="http://www.w3.org/2000/svg">
<path d="M23.5 0C10.5221 0 0 10.5221 0 23.5C0 36.4779 10.5221 47 23.5 47C36.4779 47 47 36.4779 47 23.5C47 10.5221 36.4779 0 23.5 0ZM38.2784 26.8003C38.2622 27.7852 38.1362 28.7826 37.9381 29.7477C37.5528 31.6328 36.4527 32.9184 34.555 33.4621C33.4711 33.7736 32.362 33.8978 31.2439 33.9032C26.3682 33.9212 21.4907 33.9158 16.6149 33.9176C15.2826 33.9176 13.9574 33.8258 12.6701 33.4495C11.2711 33.0408 10.1422 32.2828 9.48858 30.9324C9.09248 30.1168 8.90703 29.2436 8.808 28.3487C8.76839 27.9868 8.73058 27.6249 8.69277 27.2612H8.69457V18.7593C8.73238 18.3776 8.76659 17.9959 8.8098 17.6142C8.89802 16.8346 9.06907 16.0802 9.46698 15.3906C10.099 14.2977 11.1306 13.7972 12.2883 13.5019C13.5559 13.1778 14.854 13.0968 16.1576 13.095C20.6678 13.0896 25.1781 13.086 29.6883 13.0914C30.6119 13.0914 31.5392 13.1112 32.461 13.1634C33.4621 13.2192 34.4524 13.365 35.403 13.7125C36.6166 14.1555 37.4574 14.9585 37.8625 16.2044C38.1848 17.1983 38.2694 18.2246 38.2784 19.2544C38.3 21.7697 38.3234 24.285 38.2784 26.8003Z" fill="white"/>
<path d="M28.1527 23.0427C28.0897 22.8662 27.9763 22.724 27.8233 22.6069C27.744 22.5475 27.6558 22.4935 27.5568 22.4449C25.5888 21.424 23.6011 20.3869 21.6152 19.3661C21.2551 19.1788 20.9202 19.1554 20.6555 19.2652C20.5511 19.3085 20.4592 19.3751 20.3818 19.4579C20.2018 19.6469 20.0938 19.9332 20.0938 20.2969V26.4528C20.0938 26.8021 20.191 27.0794 20.3566 27.2684C20.4358 27.3584 20.5295 27.4269 20.6357 27.4755C20.6411 27.4791 20.6465 27.4827 20.6537 27.4845C20.6627 27.4881 20.6717 27.4899 20.6789 27.4935C20.94 27.5925 21.2659 27.5673 21.6134 27.3836C21.8924 27.2396 22.1733 27.0938 22.4524 26.9497C24.1593 26.0585 25.8661 25.1654 27.5748 24.2778C27.762 24.1806 27.9187 24.0617 28.0285 23.9123C28.1365 23.7611 28.1978 23.5792 28.1996 23.356C28.1996 23.2389 28.1816 23.1363 28.1491 23.0409L28.1527 23.0427Z" fill="white"/>
</svg>
