<svg width="47" height="47" viewBox="0 0 47 47" fill="none" xmlns="http://www.w3.org/2000/svg">
<path d="M23.5 0C10.5221 0 0 10.5221 0 23.5C0 36.4779 10.5221 47 23.5 47C36.4779 47 47 36.4779 47 23.5C47 10.5221 36.4779 0 23.5 0ZM16.9462 35.6533H11.4493V18.2336H16.9462V35.6533ZM17.3225 12.8411C17.3279 14.3103 16.3701 15.4968 14.9603 15.7669C14.2473 15.9037 13.5451 15.8749 12.8663 15.5886C11.6906 15.0935 11.001 13.88 11.1198 12.5386C11.2405 11.1954 12.1281 10.1746 13.4137 9.8973C14.0348 9.76406 14.6542 9.76946 15.2646 9.95311C16.5249 10.3312 17.3189 11.4493 17.3225 12.8393V12.8411ZM36.8668 35.4679V35.6533H31.3483H31.3501V26.2998C31.3501 25.6786 31.2943 25.0628 31.1251 24.4633C30.5525 22.4377 28.3739 21.7031 26.7805 23.0103C25.8929 23.7377 25.5274 24.7171 25.5328 25.8947C25.549 29.0491 25.5382 32.2054 25.5382 35.3616V35.6515H20.0305V18.2372H25.5274V20.6084C25.5436 20.6156 25.558 20.621 25.5742 20.6282C25.612 20.5688 25.6516 20.5094 25.6894 20.45C26.577 19.0726 27.7672 18.1597 29.3534 17.9149C31.2817 17.616 33.0876 17.9257 34.6234 19.2941C35.6407 20.2015 36.2133 21.3988 36.5446 22.7348C36.766 23.6242 36.8668 24.5335 36.8668 25.4517C36.8704 28.7898 36.8668 32.1297 36.8668 35.4679Z" fill="white"/>
</svg>
