<svg width="47" height="47" viewBox="0 0 47 47" fill="none" xmlns="http://www.w3.org/2000/svg">
<path d="M23.4598 19.3499C21.0507 19.3355 19.0864 21.307 19.0522 23.7737C19.018 26.2061 20.9769 28.2515 23.377 28.2875C25.804 28.3235 27.8008 26.3358 27.826 23.8583C27.853 21.3808 25.8995 19.3643 23.4598 19.3499Z" fill="white"/>
<path d="M23.5 0C10.5221 0 0 10.5221 0 23.5C0 36.4779 10.5221 47 23.5 47C36.4779 47 47 36.4779 47 23.5C47 10.5221 36.4779 0 23.5 0ZM38.8312 30.3977C38.7484 31.7192 38.4999 33.0138 37.9183 34.2219C36.577 37.0091 34.2525 38.4549 31.2835 38.8294C29.546 39.049 27.7744 38.9878 26.0171 39.0346C25.1709 39.058 24.3228 38.9608 23.4748 38.9608C21.1936 38.9608 18.9106 39.049 16.6365 38.9356C13.8188 38.7952 11.4349 37.6825 9.77306 35.2968C8.66576 33.707 8.27505 31.8921 8.14902 29.998C7.88795 26.0927 7.86994 22.1838 8.0698 18.2768C8.14182 16.885 8.23904 15.4608 8.59374 14.123C9.47598 10.8011 11.8328 8.97364 15.1241 8.37948C16.6869 8.09861 18.2966 7.99778 19.8864 7.97977C22.9635 7.94376 26.0441 7.97437 29.1211 8.0806C30.3941 8.12381 31.6958 8.30206 32.9202 8.64595C36.3303 9.60201 38.4351 12.2289 38.7484 15.7525C39.1823 20.63 39.1355 25.5147 38.8312 30.3977Z" fill="white"/>
<path d="M32.1497 11.8184C31.561 11.6438 30.9416 11.5087 30.3312 11.4853C28.0536 11.3971 25.7724 11.3629 23.493 11.3089V11.3161C23.493 11.3161 23.493 11.3161 23.493 11.3107C22.337 11.3107 21.1793 11.3557 20.0216 11.3755C18.8657 11.3935 17.708 11.4079 16.5557 11.4871C13.385 11.7104 11.6061 13.3812 11.3865 16.3953C11.0498 21.0477 11.0552 25.7038 11.3847 30.3581C11.5611 32.8589 12.7314 34.3389 14.964 34.9799C15.3836 35.1006 15.8211 35.2176 16.2532 35.2356C18.3346 35.3184 20.4195 35.4192 22.5027 35.412C25.27 35.403 28.0446 35.4066 30.8029 35.2104C33.754 35.0015 35.3978 33.2767 35.6085 30.3923C35.9469 25.7236 35.9415 21.0513 35.6103 16.3809C35.4374 13.9466 34.2923 12.4558 32.1497 11.8184ZM23.4137 31.5248H23.4155C19.233 31.5212 15.8571 28.0678 15.8607 23.7989C15.8643 19.5479 19.2654 16.091 23.4461 16.0892C27.6341 16.0892 31.0442 19.5803 31.0298 23.8547C31.0136 28.1056 27.6125 31.532 23.4137 31.5248ZM31.7068 17.9563H31.7086C30.7237 17.9635 29.9531 17.1947 29.9459 16.2008C29.9387 15.2087 30.7039 14.4165 31.678 14.4093C32.6485 14.4021 33.4371 15.1871 33.4497 16.1702C33.4623 17.1497 32.6791 17.9527 31.7068 17.9563Z" fill="white"/>
</svg>
