<svg width="55" height="52" viewBox="0 0 55 52" fill="none" xmlns="http://www.w3.org/2000/svg">
<path d="M44.9167 45.5L30.4792 31.85C29.3333 32.7167 28.0156 33.4028 26.526 33.9083C25.0365 34.4139 23.4514 34.6667 21.7708 34.6667C17.6076 34.6667 14.0842 33.3035 11.2005 30.5771C8.31684 27.8507 6.875 24.5194 6.875 20.5833C6.875 16.6472 8.31684 13.316 11.2005 10.5896C14.0842 7.86319 17.6076 6.5 21.7708 6.5C25.934 6.5 29.4575 7.86319 32.3411 10.5896C35.2248 13.316 36.6667 16.6472 36.6667 20.5833C36.6667 22.1722 36.3993 23.6708 35.8646 25.0792C35.3299 26.4875 34.6042 27.7333 33.6875 28.8167L48.125 42.4667L44.9167 45.5ZM21.7708 30.3333C24.6354 30.3333 27.0703 29.3854 29.0755 27.4896C31.0807 25.5938 32.0833 23.2917 32.0833 20.5833C32.0833 17.875 31.0807 15.5729 29.0755 13.6771C27.0703 11.7813 24.6354 10.8333 21.7708 10.8333C18.9063 10.8333 16.4714 11.7813 14.4661 13.6771C12.4609 15.5729 11.4583 17.875 11.4583 20.5833C11.4583 23.2917 12.4609 25.5938 14.4661 27.4896C16.4714 29.3854 18.9063 30.3333 21.7708 30.3333Z" fill="#FEF7FF"/>
</svg>
