<svg width="46" height="47" viewBox="0 0 46 47" fill="none" xmlns="http://www.w3.org/2000/svg">
<path d="M17.729 43.0833L16.9623 36.8167C16.547 36.6535 16.1557 36.4576 15.7883 36.2292C15.421 36.0007 15.0616 35.7559 14.7102 35.4948L9.00814 37.9427L3.7373 28.6406L8.67272 24.8219C8.64078 24.5934 8.6248 24.3731 8.6248 24.1609V22.8391C8.6248 22.6269 8.64078 22.4066 8.67272 22.1781L3.7373 18.3594L9.00814 9.0573L14.7102 11.5052C15.0616 11.2441 15.429 10.9993 15.8123 10.7708C16.1956 10.5424 16.579 10.3465 16.9623 10.1833L17.729 3.91667H28.2706L29.0373 10.1833C29.4526 10.3465 29.8439 10.5424 30.2113 10.7708C30.5786 10.9993 30.938 11.2441 31.2894 11.5052L36.9915 9.0573L42.2623 18.3594L37.3269 22.1781C37.3588 22.4066 37.3748 22.6269 37.3748 22.8391V24.1609C37.3748 24.3731 37.3429 24.5934 37.279 24.8219L42.2144 28.6406L36.9436 37.9427L31.2894 35.4948C30.938 35.7559 30.5706 36.0007 30.1873 36.2292C29.804 36.4576 29.4206 36.6535 29.0373 36.8167L28.2706 43.0833H17.729ZM23.0956 30.3542C24.9484 30.3542 26.5297 29.6851 27.8394 28.3469C29.1491 27.0087 29.804 25.3931 29.804 23.5C29.804 21.6069 29.1491 19.9913 27.8394 18.6531C26.5297 17.3149 24.9484 16.6458 23.0956 16.6458C21.2109 16.6458 19.6217 17.3149 18.3279 18.6531C17.0342 19.9913 16.3873 21.6069 16.3873 23.5C16.3873 25.3931 17.0342 27.0087 18.3279 28.3469C19.6217 29.6851 21.2109 30.3542 23.0956 30.3542Z" fill="#FEF7FF"/>
</svg>
